<?xml version="1.0" encoding="utf-8"?>
<!-- Generator: Adobe Illustrator 21.0.0, SVG Export Plug-In . SVG Version: 6.00 Build 0)  -->
<svg version="1.1" id="Avatar" xmlns="http://www.w3.org/2000/svg" xmlns:xlink="http://www.w3.org/1999/xlink" x="0px" y="0px"
	 viewBox="0 0 607.9 427.5" style="enable-background:new 0 0 607.9 427.5;" xml:space="preserve">
<style type="text/css">
	.st0{fill:#D5C099;}
	.st1{fill:#9E6535;}
	.st2{fill:#8E5B34;}
	.st3{fill:#FFFFFF;}
</style>
<title>avatar_2016</title>
<path id="backer" d="M563.1,348.4c1.5,3.2,1.5,6.6,2,9.9c1,6-3.3,11.1-8.9,10.2c-6.5-1-13.1-1.6-20.1-2.5c1.1,7.3,2.2,14.4,3.5,21.6
	c0.6,3.8,0.5,7.7-0.2,11.4c-1.4,8.8-9.1,12.8-19.5,10.8c-11.9-2.3-21-9.5-30.3-16.3c-6.5-4.7-12.8-9.5-19.1-14.5
	c-3.1-2.5-5.5-2.4-8.7,0.2c-25.9,21-55.9,33.1-88.2,40.5c-29.1,6.6-58.7,8.5-88.2,7.9c-46.7-1-91.6-10.5-133.4-32.4
	c-4.4-2.3-8.9-4.5-12.9-7.5s-7.4-2.5-11.4-0.5c-8.9,4.3-17.4,9.4-25.5,15.2c-2.6,2-5.4,3.8-8.3,5.5c-7.8,4.5-13.2,1.5-13.8-7.5
	c-0.2-2.8-0.3-5.5-0.5-9.3c-4.4,4-7.8,7.3-11.4,10.5c-2.7,2.3-5.5,4.1-9.4,2.5c-3.1-1.3-4.8-3-4.9-6.5c-0.3-7.2,1.5-14.2,1.1-21.4
	c-0.2-3.9-1.3-5.6-5.6-5.5c-4,0.2-7.9-0.4-11.7-1.7C29.2,365.4,25,358,26,348.8c1.1-10.3,4.8-19.8,7.6-29.6c0.6-2.2,1.8-4.3,1.1-7.1
	c-6.9,3.1-13.2,7.4-20.3,9.8c-9.8,3.2-14.5-0.2-14.3-10.6c0.3-10.1,2.2-20,5.9-29.5c4.6-12.4,10.9-24.1,16.2-36.1
	c2.8-6.3,4.9-13,6.1-19.8c0.6-3,0.7-5.4-2.9-7.3c-5-2.7-5.5-7.4-1.4-12.1c27.8-31.7,51.6-66.6,79.5-98.2c3.5-4,6.7-8.3,10-12.5
	c2.7-3.5,5.5-6.6,4-12c-1.1-4.2,3.1-6.6,6.1-8.9c17.8-13.4,37.1-24.8,57.3-34.1C204.2,30,228.4,21.9,253.8,18
	c30.7-4.8,61.5-4.6,91.9,2.7c5.6,1.3,10.4-0.1,15.5-1.6c14-4.2,26.5-11.7,40.1-16.7c3.5-1.4,7.3-2.2,11.1-2.3c6.3,0,9.4,3.1,9.4,9.5
	c-0.1,5.6-0.8,11.2-2,16.7c-0.8,5.1-0.8,10.3,0.2,15.4c0.7,4.3,3.4,6.8,7.3,8.6c23.4,10.8,46,22.9,66.6,38.4
	c13.1,10,25.4,21,36.9,32.9c4.8,4.9,5,11.6,8.9,16.9c11.9,16.1,23.6,32.4,35.1,48.9c12.7,18,23.9,36.8,29.9,58.3
	c1.2,4.1,2.1,8.3,2.9,12.6c1.1,6-1.8,9.4-7.9,10.1c-8.4,1-16.6-0.3-24.6-2.3c-4.5-1.1-4.5,0.5-3.6,3.7c3.6,12.5,7.5,25,10.2,37.7
	c1.9,8.4,2.4,17.2,1.5,25.8c-1.1,8.3-4.7,11.9-13.2,13.9C567.9,347.6,565.5,347.9,563.1,348.4z"/>
<path id="skin" class="st0" d="M502.9,221c1.5,15.5,3.5,30.1,10.7,43.5c1,1.8,0.3,3.5-0.1,5.3c-16.2,60.6-53,102.9-112,125.1
	c-37.3,14-76.2,18.2-115.8,16.8c-40.7-1.4-79.8-9.4-116.5-27.5c-31.7-15.6-57.7-37.5-74.3-69.2c-0.5-0.9-0.9-1.8-1.4-2.6
	c-5.1-9-7.9-17.1,2.1-25.8c7.6-6.6,11.1-16.8,15.3-26.1c0.8-1.8,1.4-3.4,3.9-4c12.7-3.3,23.8-10.1,34.7-17.2
	c21.8-14.1,42.2-30.3,65.2-42.5c8.2-4.3,16.8-7.8,27-8.2c-2.2,5.3-5,10.4-8.3,15.2c-5.3,8.1-11.3,15.7-15.5,24.4
	c-4.6,9.4-6.8,19-4.2,29.5c2.2,9,6.6,11.4,15.4,8c6.1-2.4,10.8-6.4,15.1-11.2s8.2-9.7,12.5-14.3c5.4-5.7,10.4-6.8,17.5-3.7
	c10.6,4.7,20.7,3.9,30.5-2c5.4-3.3,10.7-6.8,16-10.2c1.5-1,2.8-1.9,4.8-0.2c7.7,6.9,16.2,6.5,25.1,2.5c7.3-3.2,13.1-8.5,19.1-13.5
	c2.6-2.2,4.4-2.7,7.5-0.2c11.3,9.1,23.5,8.4,34.8-1.6c3.3-2.8,6.2-6.1,8.4-9.8c2-3.5,3.3-3,5.5-0.2c15.2,18.3,34.6,26.9,58.4,25.5
	C490.7,226.3,497.1,224.3,502.9,221z"/>
<path id="hair8" class="st1" d="M258.1,219.8c-6.7,2.1-10.4,5.5-16.4,11.1c-1.5,1.2-2.9,2.6-4.2,4c-3.8-0.2-3.2-2.4-2.4-4.9
	c5.3-8.2,10.6-16.4,15.8-24.7c3.8-6.2,6.4-13.2,7.6-20.4c1.1-6.4-1.1-9.6-7.4-11.2c-10-2.5-19.7-0.6-29.4,1.9
	c-2.9-0.8-5.2-0.2-8,1.5c-7.1,4.2-14.3,8.5-22.4,10.5c-7.6,1.9-13.8-0.4-18.8-6.2c-3.1-3.6-3.9-7.7-2.6-12.6
	c5.8-21.4,19.3-37.3,36.3-50.5c16.2-12.6,33.5-23.4,51.2-33.7c1.6-0.9,3.1-2.1,4.3-3.4c-11.3,3.4-22.2,8-32.6,13.5
	c-16.4,8.6-32,18.3-46.9,29.3c-13.2,9.6-25.5,20.3-36.9,32c-2.3,2.4-4.3,5-7.5,6.4c-4,0.6-7,2.5-8.2,6.6
	c-3.7,8.5-11.6,13.4-17.6,19.8c-6.8,7.3-14,14.3-21,21.3c-4.4,4.4-8.8,9.2-16.1,8.8c-6.5-0.4-13.3-4.7-15.5-10.8s-0.6-11.4,3.9-16
	c15.8-16.4,31.4-33.1,47.6-49.2c26.7-26.5,55.5-50.5,88.2-69.1c21.9-12.5,44.4-23.8,69.8-27.4c11.4-1.6,22.8-2.6,34.3-0.7
	c7.4,1.3,11.8,5.6,13,13.1c1.8,11.4-3,20.4-10.2,28.6c-11.9,13.8-27.7,22.3-42.6,31.9c-5.2,3.4-5.5,3.3-2.4,8.7
	c2.2,3.8,2.2,7.9,1.5,13.2c6-3.5,10.5-7.4,15.3-11c4.1-3,8.1-5.6,13.5-5.6c2.5,0,5.1,3.3,7.3,0.5c1.5-1.9,1.3-4.8,2.1-7.1
	c5.5-14.6,13-28.1,23.4-39.8c4.3-4.9,9.9-6.9,16.3-4.5s10,7.1,11.1,13.6c0.7,4.3,0.7,8.7-0.2,12.9c-1.6,9-4.1,17.9-7.3,26.5
	c4.2-4,8.2-8.1,12.3-12.1c12.1-11.9,29.1-4.1,30.2,9.5c0.2,2.3,1.3,2.6,3.4,2c6.8-1.7,7.1-2,4.7-8.7c-3.2-8.9-8.1-16.8-13.6-24.3
	c-4.5-6.1-5.4-13.5-2.2-18.1c5-7.1,13.3-10,21.1-7.6s13.9,7.2,19.6,12.6c9.3,8.7,16.4,19.2,23.3,30c-5.7-9.4-9.7-19.6-13.8-29.7
	c-1.6-3.9-1.4-7.4,1.6-10.6c11.2,5.1,22.1,10.8,32.7,17.1c1.5,0.9,3,2,4.4,3.1c13.2,17.4,22.6,36.8,30.4,56.9
	c4.2,11,6.1,22.6,3.5,34.8c-3,13.7-15.5,25.5-29.5,25.1c-8-0.2-14.4-4.7-19-11.4s-6-14.4-8.1-21.9c-2.5-9.1-8.6-16-13.1-23.9
	c-1.3-2.3-2.5-1.1-3.6,0.5c-2.8,4.1-4.6,8.9-8.5,12.2c-3.3,2.8-6.7,5.6-11,6.7c-3.4,0.9-5.3,3-6.8,6c-3.5,7-7,14-13.9,18.5
	c-2.2,1.5-4.3,2.6-6.9,1.1c-5.4-5.7-10.4-1.9-15.5,0.7c-5.1,1-8.9-1.1-11.4-6.4c-0.7-1.5-1.1-3.1-1.7-4.7s-0.7-3.2-1.6-5.2
	c-3.9,4.8-6.1,10.4-9.7,15c-1.6,2.1-3.3,4.2-4.9,6.2c-3.2,4-6.7,6.7-12.3,5.5c-1.6-0.4-3.7-0.5-5,1.3c-3,1.1-6.3,1.4-8.6,3.9
	c-6.4,0.2-10.5-3-12.8-10.1c-1.7-5.3-2.6-5.6-6.3-1.2c-3.9,4.6-8.5,8.4-12.2,13.2s-7.5,5.8-13.9,5.3c-1.2,0-2.4,0-3.5,0.3
	C260.7,219.1,259.4,219.4,258.1,219.8z"/>
<path id="hair7" class="st2" d="M430.5,69.9c-3.3,6.9,0.6,12.8,3,18.7c3.4,8.5,7.5,16.8,12.1,24.8l-1.4,0.9c-2.9-4.1-6-8.2-8.8-12.4
	c-7.7-11.5-16.6-21.9-28.4-29.5c-7.8-5-18.1-7.6-26.3,2.3c-3.1,3.7-4.2,10.7-1.2,14.6c5.1,6.7,9.6,13.9,13.5,21.4
	c2,3.9,3.1,8.4,4.6,12.6c0.5,1.4,0,2.3-1.5,2.5c-0.5,0-1,0.1-1.5,0.2c-2.8,0.9-6,3.2-8.3,2.5c-2.8-0.8-0.8-5-1.8-7.6
	c-4.4-11.1-17.3-15-27.1-5.7c-4.4,4.1-8.5,8.5-12.5,12.8c-0.8,0.9-1.5,2.7-3.1,1.7c-1.2-0.8,0-2,0.4-3.1c4.2-12.3,9.1-24.5,8-38
	c-0.5-6-5.4-12.6-10.5-14c-6.8-1.9-12.7,0.6-17,6.8c-3.6,5.2-7.7,9.9-10.8,15.5c-5,9.1-10,18.2-11.9,28.5c-0.5,2.8-1.7,3.5-4,2.1
	c-5.5-3.2-10.5-1.8-15.2,1.8c-4.4,3.3-8.6,6.7-13,10c-2.4,1.9-5.1,3.2-8,4c2.7-7.1,2.3-13.1-2.9-18.4c-2.3-2.3,0.5-3.5,2-4.5
	c7.4-4.8,14.9-9.2,22.2-14.1c13-8.7,25.5-18.1,32.1-33.1c4.1-9.2,2.2-19.4-4.7-24.4c-4.4-3.2-10.1-3-15.3-3
	c-15-0.3-29.9,1.8-44.2,6.2c-13.1,4.1-25.5,10-37.6,16.5c-26.1,13.7-50.5,30.5-72.6,50.1c-8.8,8-18,15.5-26.3,24.1
	c-9,9.3-18.3,18.3-26.8,28c-5.4,6.2-11.7,11.6-17.4,17.6c-4.5,4.7-10.2,9-8.7,16.9c1,5.5,4.3,9.1,9.4,11.2c4.7,1.9,9.2,2.3,13.7-0.8
	c7.4-5.2,12.8-12.5,19.3-18.6c8-7.5,15.4-15.6,23.3-23.1c1.6-1.5,1.8-4,4.1-4.7c2.1,16.7-6.3,29.5-16,41.6
	c-8.4,10.6-17.4,20.6-26.1,31c-5.8,7-4.6,12.1,3.7,15.2c2.6,1,2.4,2.2,1.4,4.1c-6.1,11.9-12,23.9-25.6,29.2
	c-3.2,1.3-5.2,3.6-4.7,7.4s2.8,6.6,6.6,7.2c2.6,0.5,3.5,1.6,4.3,3.9c8.7,23.7,23.2,44.9,42.4,61.4c4.1,3.6,4.1,3.5-0.9,5.8
	c-6.4,3-12.3,7-18.8,11.3c-0.6-2.9-1-5.1-1.4-7.4c-1-5.7-3.9-7.9-9.7-7.6c-4,0.3-7.9,1.6-11.3,3.7c-2.1,1.2-2.8,0.5-3.3-1.7
	c-3.5-15.1-7.5-18.6-22.5-19.2c-4.8-0.2-6.5-2.2-5.7-7.1c1.1-5.9,3.1-11.5,5-17.2c2.7-7.9,4.9-15.9,3.8-24.4c-0.4-3-1.3-5.9-2.6-8.5
	c-2.3-4.7-6.3-4.8-10.7-3.7c-7.3,1.9-13.8,5.6-21,9.5c1.5-11.1,5.9-20.5,10.4-29.9c6.7-13.9,13.9-27.7,16.3-43.3
	c0.9-6.1,1.7-12.2,0.2-18.3c-0.6-2.3,0.3-3.8,1.6-5.4c26.8-35.1,54.8-69.3,82.7-103.4c4.9-6,11.3-11.5,12.4-20.1
	c0.1-0.9,1.5-1.7,2.4-2.3c33.3-23.5,71.4-39.4,111.5-46.3c26.6-4.6,53.7-6.5,79.8,0.6c20.4,5.6,36.7-2,53.8-9.4
	c4.3-1.8,8.4-4.1,12.6-6.1c1.3-0.6,2.8-2.1,4.1-1.1s0.4,2.7,0.3,4.2c-0.8,7.8-1.4,15.5,0.5,23.3c1.3,5.3,4.1,9.8,6.5,14.5
	c1.2,2.2,3.5,3.8,6,4.1C422.4,65.4,426.5,67.6,430.5,69.9z"/>
<path id="hair6" class="st2" d="M381.2,194.9c6.3-0.4,9.7-5,13.5-9.1c0.8-1,1.5-2.2,2.1-3.4c3.6-6.9,6.5-13.6,15.5-16.3
	c8.2-2.4,12.1-10.8,15.7-18.3c1.4-3,2.5-2.2,3.7-0.6c2.1,2.7,3.9,5.7,5.9,8.5c6.5,9.6,9.6,20.5,12.8,31.5
	c3,10.1,10.1,16.6,20.2,18.5c5.3,0.8,10.7-0.4,15.2-3.3c13.4-8.7,17.6-25,15-39.7c-3.3-18.6-12.2-34.8-20.9-51.1
	c-3.8-7.2-9.2-13.6-12-21.4c18.3,10.3,34.7,23.7,48.5,39.6c4.3,5,6.6,12.1,10.6,17.9c14.3,21.1,30.4,40.9,44,62.5
	c8.2,13.1,15.8,26.6,19.4,42.2c-3.7,0.4-7-1.1-10.3-1.7c-5.2-1-10.6-1.3-15.9-0.8c-8.7,0.8-11.5,4.7-10.4,13.3
	c1.9,14.8,7.3,28.6,11.2,42.9c2,6.9,3.1,14,3.3,21.1c0,6.1-0.8,6.5-6.4,4.1c-2-0.9-4-1.8-5.9-2.9c-3.4-1.9-6.7-2-9.7,0.6
	s-3.6,5.8-2.4,9.5c1,3,1.6,6.1,2.8,9c1.5,3.6-0.5,3.7-3,3.2c-4.7-1.1-9.5-1.5-14.4-1.2c-5.4,0.4-7.7,2.5-8.6,7.8
	c-1.8,10.3,1.6,20.1,3.1,30.1c0.1,0.8,0.5,1.6,0.5,2.4c0.1,1.3,0.7,2.9-0.4,3.8c-1.3,1-2.9,0.1-4.2-0.5c-7.3-3.7-14.2-8-20.7-12.9
	c-6.8-5.1-13.5-10.2-20.4-15.5c12.3-12.4,22.9-26.2,31.7-41.2c7.1-12.2,12.8-25.2,17-38.8c0.9-2.8,1.7-4.8,5.1-5.8
	c5.7-1.8,7.1-7,3.1-11.4c-11.1-12-15.1-26.2-15.1-42.1c0-5.2-0.2-10.3-0.8-15.5c-1.1-10.8-7.7-14.1-16.4-7.6
	c-15.8,11.7-32.3,9-48.9,3c-6-2.2-10-7.6-14.3-12.3s-8.3-9.6-12.8-14c-5.2-5-10.9-3.8-14.1,2.6c-2,4.4-4.3,8.6-6.8,12.8
	C398,206.8,389.6,206.8,381.2,194.9z"/>
<path id="hair5" class="st2" d="M137.6,162.6c10.1-12,21.9-22.3,34.2-31.9c4.3-3.4,8.5-6.8,12.9-10c16.9-12.2,34.8-22.9,53.5-31.9
	c8.1-3.9,16.4-7.9,26.1-9c-1.8,3.2-4.5,5-7.2,6.6c-20.7,12-41.2,24.5-59.2,40.6c-11.3,9.8-20,22.4-25.2,36.5c-2.2,6-4.8,12.2,0.8,18
	s12,7.5,19.5,4.5c8-3.1,16.1-6,22.5-11.9c3.2-2.9,4.2,0.6,6,1.7c-25.7,10-47,27.2-69.7,42.3c-11.2,7.5-22.2,15.2-34.8,20.3
	c-1.9,0.8-3.8,2.1-6.6,1.4c5.3-6.4,10.6-12.5,15.7-18.8c8.8-11,16.1-22.8,18.6-37c0.6-3.4,1-6.9,1.1-10.4
	C146.2,166.8,144.3,164.5,137.6,162.6z"/>
<path id="hair4" class="st2" d="M319,207.4c0.4-1.8,1.8-1.9,3.1-1.7c9,1.4,13.1-5,17.2-10.9s7.9-12.1,12.2-18.8
	c3,8.2,2.3,18.7,14.1,19.6c-5.8,4.7-11.5,9.6-17.4,14.1s-9.8,4.6-15.6,0.2C328.8,206.9,323.7,205.9,319,207.4z"/>
<path id="hair3" class="st2" d="M265.3,218.6c5.9,0.7,9.8-2.5,13.4-6.7c4.9-5.8,10.1-11.3,15.7-16.4c1.8-1.6,2.7-1.7,3.2,0.9
	c0.4,2.3,1.1,4.5,2,6.6c2.1,4.6,5.5,7.7,10.8,8.3c-2.2,1.7-4.6,3.2-6.7,5.1c-8.5,7.6-17.5,11-28.3,4.3
	C272.4,218.9,268.5,218.8,265.3,218.6z"/>
<path id="hair2" class="st2" d="M235.1,230.1c0,2,0,4,2.4,4.9c-3.8,5.1-5.6,8-9.5,12.9C228.7,240.3,231.8,235.1,235.1,230.1z"/>
<path id="eye4" d="M466.5,272.1c0.9,17-10.6,30.5-27.1,31.5c-19,1.1-34.7-11.2-35.5-28c-0.9-17.1,12.1-31.8,29.3-32.9
	C451.7,241.5,465.5,253.8,466.5,272.1z"/>
<path id="eye3" d="M169.7,300.4c-16.8,0.6-28.6-9.3-29.1-24.6c-0.6-16.8,11.3-32.5,24.8-33c24.2-0.9,33.1,11.5,33.6,25.5
	C199.6,285.5,186.6,299.8,169.7,300.4z"/>
<path id="mouth" d="M291.8,370.1c-17,0-34-0.5-50.2-6.4c-7.4-2.6-14.3-6.4-20.5-11.2c-4-3.3-4.6-7.2-1.9-10.9s7.8-4.8,11.5-1.9
	c14.9,11.8,32.5,13.6,50.4,14c8,0.1,16-0.3,24-0.5c6.5-0.1,9.6,2.5,9.7,8c0.1,5.1-2.9,7.9-9.1,8.3c-2.8,0.2-5.7,0.2-8.5,0.4
	L291.8,370.1z"/>
<path id="hair1" class="st2" d="M340.7,133.3c-0.3-0.1-0.7-0.1-0.8-0.3s0.2-0.5,0.3-0.8c0.3,0.1,0.7,0.1,0.8,0.3
	S340.8,133,340.7,133.3z"/>
<path id="eye2" class="st3" d="M438.3,287.4c-4.7,0.3-9.3-1.1-13.1-3.9c-4.4-3-6.6-8.3-5.7-13.5c0.6-5.4,4.7-9.7,10-10.6
	c11.5-2.3,16.7-0.7,20.8,9.3C454.5,278.7,449.2,286.8,438.3,287.4z"/>
<path id="eye1" class="st3" d="M169.4,284.1c-1,0.1-2,0.2-3,0.1c-9.4-0.8-12.5-5.8-9.1-14.5c0.4-0.9,0.9-1.8,1.3-2.7
	c4.3-8.4,8-10.1,16.8-7.6c5.8,1.7,8.9,6.8,8,13.1C182.4,279.6,177.2,283.9,169.4,284.1z"/>
</svg>
