<svg id="Behance" xmlns="http://www.w3.org/2000/svg" viewBox="0 0 19.2 19.2"><defs><style>.cls-1{fill:#fff;}</style></defs><title>behance</title><circle id="background" class="cls-1" cx="9.6" cy="9.6" r="9"/><path d="M8,7.81C8,7,7.45,7,7.45,7H5.26V8.74H7.31C7.67,8.74,8,8.6,8,7.81Z" transform="translate(0)"/><path d="M9.6,0a9.6,9.6,0,1,0,9.6,9.6h0A9.6,9.6,0,0,0,9.6,0Zm1.81,6.06h3.1v1h-3.1ZM9.84,11.13a2.26,2.26,0,0,1-2.21,2.31H3.53V5.6H7.45A2,2,0,0,1,9.6,7.68a1.34,1.34,0,0,1-1.16,1.5h0c1.51,0,1.41,1.94,1.41,1.94ZM15.6,11H11.7a1.24,1.24,0,0,0,1.11,1.36H13c1.25,0,1.21-.84,1.21-.84H15.6C15.6,13.76,13,13.6,13,13.6a2.75,2.75,0,0,1-2.89-3s0-3,2.89-3S15.6,11,15.6,11Z" transform="translate(0)"/><path d="M13.06,8.74A1.38,1.38,0,0,0,11.74,10H14.2a1.15,1.15,0,0,0-1.09-1.21Z" transform="translate(0)"/><path d="M7.45,10H5.26v2.1H7.34c.31,0,.9-.1.9-1C8.24,9.94,7.45,10,7.45,10Z" transform="translate(0)"/></svg>