<svg id="Github" xmlns="http://www.w3.org/2000/svg" viewBox="0 0 19.2 19.2"><defs><style>.cls-1{fill:#fff;}</style></defs><title>github</title><circle id="background" class="cls-1" cx="9.6" cy="9.6" r="9"/><path d="M9.6,9.55h0c-1.29,0-2.43-.33-3.11.29a1.7,1.7,0,0,0-.57,1.3c0,2,1.61,2.26,3.68,2.26h0c2.07,0,3.68-.25,3.68-2.26a1.7,1.7,0,0,0-.57-1.3C12,9.22,10.91,9.55,9.6,9.55ZM7.85,12.3c-.39,0-.71-.44-.71-1s.32-1,.71-1,.71.44.71,1S8.25,12.3,7.85,12.3Zm3.49,0c-.39,0-.71-.44-.71-1s.32-1,.71-1,.71.44.71,1-.31,1-.7,1Z" transform="translate(0)"/><path d="M9.6,0a9.6,9.6,0,1,0,9.6,9.6h0A9.6,9.6,0,0,0,9.6,0Zm1,13.88h-2a3.69,3.69,0,0,1-4.1-4,3,3,0,0,1,.82-2.12,4.89,4.89,0,0,1,.35-2.43,6.18,6.18,0,0,1,2.5,1.14A5.9,5.9,0,0,1,9.6,6.33,5.91,5.91,0,0,1,11,6.46a6.18,6.18,0,0,1,2.5-1.14,4.87,4.87,0,0,1,.35,2.43,3,3,0,0,1,.82,2.12,3.69,3.69,0,0,1-4.05,4Z" transform="translate(0)"/></svg>