<svg id="Twitter" xmlns="http://www.w3.org/2000/svg" viewBox="0 0 19.2 19.2"><defs><style>.cls-1{fill:#fff;}</style></defs><title>twitter</title><circle id="background" class="cls-1" cx="9.6" cy="9.6" r="9"/><path d="M9.6,0a9.6,9.6,0,1,0,9.6,9.6h0A9.6,9.6,0,0,0,9.6,0Zm3.9,7.86V8.1a5.38,5.38,0,0,1-8.27,4.5h.45A3.79,3.79,0,0,0,8,11.79a1.89,1.89,0,0,1-1.77-1.31,2,2,0,0,0,.34.12,1.9,1.9,0,0,0,.5-.07A1.89,1.89,0,0,1,5.6,8.66V8.6a1.9,1.9,0,0,0,.86.24,1.9,1.9,0,0,1-.59-2.53,5.38,5.38,0,0,0,3.9,2,1.86,1.86,0,0,1,0-.43A1.89,1.89,0,0,1,13,6.6a3.8,3.8,0,0,0,1.2-.46,1.9,1.9,0,0,1-.83,1,3.8,3.8,0,0,0,1.09-.3A3.83,3.83,0,0,1,13.5,7.86Z" transform="translate(0)"/></svg>